<svg width="14" height="14" viewBox="0 0 14 14" fill="none" xmlns="http://www.w3.org/2000/svg">
<path fill-rule="evenodd" clip-rule="evenodd" d="M7.3276 0.57936C7.28373 0.247853 7.00107 0 6.66667 0C6.3322 0 6.04953 0.247807 6.00573 0.57936L6.005 0.584693L6.00193 0.606753C5.999 0.6269 5.99447 0.657707 5.98813 0.697993C5.97553 0.778613 5.95593 0.896913 5.92847 1.04349C5.87333 1.33741 5.78747 1.74107 5.66447 2.18055C5.40847 3.09575 5.0278 4.02939 4.52859 4.52859C4.02939 5.0278 3.09575 5.40847 2.18055 5.66447C1.74107 5.78747 1.33741 5.87333 1.04349 5.92847C0.896913 5.95593 0.778613 5.97553 0.697993 5.98813C0.657707 5.99447 0.6269 5.999 0.606753 6.00193L0.584693 6.005L0.579947 6.00567C0.24844 6.04953 0 6.33227 0 6.66667C0 7.00113 0.247807 7.2838 0.57936 7.3276L0.584693 7.32833L0.606753 7.3314C0.6269 7.33433 0.657707 7.33887 0.697993 7.3452C0.778613 7.3578 0.896913 7.3774 1.04349 7.40487C1.33741 7.46 1.74107 7.54587 2.18055 7.66887C3.09575 7.92487 4.02939 8.30553 4.52859 8.80473C5.0278 9.30393 5.40847 10.2376 5.66447 11.1528C5.78747 11.5923 5.87333 11.9959 5.92847 12.2899C5.95593 12.4364 5.97553 12.5547 5.98813 12.6353C5.99447 12.6756 5.999 12.7064 6.00193 12.7266L6.005 12.7487L6.00567 12.7534C6.04947 13.0849 6.3322 13.3333 6.66667 13.3333C7.00113 13.3333 7.2838 13.0855 7.3276 12.754L7.32833 12.7487L7.3314 12.7266C7.33433 12.7064 7.33887 12.6756 7.3452 12.6353C7.3578 12.5547 7.3774 12.4364 7.40487 12.2899C7.46 11.9959 7.54587 11.5923 7.66887 11.1528C7.92487 10.2376 8.30553 9.30393 8.80473 8.80473C9.30393 8.30553 10.2376 7.92487 11.1528 7.66887C11.5923 7.54587 11.9959 7.46 12.2899 7.40487C12.4364 7.3774 12.5547 7.3578 12.6353 7.3452C12.6756 7.33887 12.7064 7.33433 12.7266 7.3314L12.7487 7.32833L12.7534 7.32767C13.0849 7.28387 13.3333 7.00113 13.3333 6.66667C13.3333 6.3322 13.0855 6.04953 12.754 6.00573L12.7487 6.005L12.7266 6.00193C12.7064 5.999 12.6756 5.99447 12.6353 5.98813C12.5547 5.97553 12.4364 5.95593 12.2899 5.92847C11.9959 5.87333 11.5923 5.78747 11.1528 5.66447C10.2376 5.40847 9.30393 5.0278 8.80473 4.52859C8.30553 4.02939 7.92487 3.09575 7.66887 2.18055C7.54587 1.74107 7.46 1.33741 7.40487 1.04349C7.3774 0.896913 7.3578 0.778613 7.3452 0.697993C7.33887 0.657707 7.33433 0.6269 7.3314 0.606753L7.32833 0.584693L7.3276 0.57936ZM9.9148 6.66667C9.17627 6.3952 8.4014 6.01087 7.86193 5.4714C7.32247 4.93195 6.93813 4.15709 6.66667 3.41851C6.3952 4.15709 6.01087 4.93195 5.4714 5.4714C4.93195 6.01087 4.15709 6.3952 3.41851 6.66667C4.15709 6.93813 4.93195 7.32247 5.4714 7.86193C6.01087 8.4014 6.3952 9.17627 6.66667 9.9148C6.93813 9.17627 7.32247 8.4014 7.86193 7.86193C8.4014 7.32247 9.17627 6.93813 9.9148 6.66667Z" fill="#7E7E7E"/>
</svg>
